<svg id="_3._Day_3-Color_Hero" data-name="3. Day 3-Color Hero" xmlns="http://www.w3.org/2000/svg" xmlns:xlink="http://www.w3.org/1999/xlink" viewBox="0 0 793 671.76"><defs><style>.cls-1{fill:url(#linear-gradient);}.cls-2{fill:url(#linear-gradient-2);}.cls-3,.cls-30,.cls-32{fill:#231f20;}.cls-10,.cls-11,.cls-12,.cls-13,.cls-14,.cls-15,.cls-16,.cls-17,.cls-18,.cls-19,.cls-20,.cls-21,.cls-26,.cls-27,.cls-28,.cls-3,.cls-33,.cls-34,.cls-35,.cls-36,.cls-37,.cls-5,.cls-6,.cls-7,.cls-8,.cls-9{stroke:#231f20;}.cls-10,.cls-11,.cls-12,.cls-13,.cls-14,.cls-15,.cls-16,.cls-17,.cls-18,.cls-19,.cls-20,.cls-21,.cls-26,.cls-27,.cls-28,.cls-3,.cls-33,.cls-34,.cls-35,.cls-36,.cls-5,.cls-6,.cls-7,.cls-8,.cls-9{stroke-linejoin:round;}.cls-3,.cls-33,.cls-34,.cls-35,.cls-36{stroke-width:2px;}.cls-4{fill:#2e3544;}.cls-10,.cls-11,.cls-12,.cls-13,.cls-14,.cls-15,.cls-16,.cls-17,.cls-18,.cls-19,.cls-26,.cls-28,.cls-5,.cls-6,.cls-7,.cls-8,.cls-9{stroke-width:1.5px;}.cls-5{fill:url(#linear-gradient-3);}.cls-6{fill:url(#linear-gradient-4);}.cls-7{fill:url(#linear-gradient-5);}.cls-8{fill:url(#linear-gradient-6);}.cls-9{fill:url(#linear-gradient-7);}.cls-10{fill:url(#linear-gradient-8);}.cls-11{fill:url(#linear-gradient-9);}.cls-12{fill:url(#linear-gradient-10);}.cls-13{fill:url(#linear-gradient-11);}.cls-14{fill:url(#linear-gradient-12);}.cls-15{fill:url(#linear-gradient-13);}.cls-16{fill:url(#linear-gradient-14);}.cls-17{fill:url(#linear-gradient-15);}.cls-18{fill:url(#linear-gradient-16);}.cls-19{fill:url(#linear-gradient-17);}.cls-20{fill:#fff;}.cls-21{fill:#383333;}.cls-22{fill:url(#linear-gradient-18);}.cls-23{fill:url(#linear-gradient-19);}.cls-24{fill:url(#linear-gradient-20);}.cls-25{fill:url(#linear-gradient-21);}.cls-26{fill:#399f49;}.cls-27,.cls-28{fill:#e8e864;}.cls-29{stroke:#000;}.cls-29,.cls-31,.cls-37{stroke-miterlimit:10;}.cls-31{fill:#1e1e1e;stroke:#1e1e1e;}.cls-32{opacity:0.95;}.cls-34{fill:#0074be;}.cls-35{fill:#40ade1;}.cls-36{fill:#f6a983;}</style><linearGradient id="linear-gradient" x1="0.5" y1="381.33" x2="792.5" y2="381.33" gradientUnits="userSpaceOnUse"><stop offset="0.24" stop-color="#0074be" stop-opacity="0.75"/><stop offset="0.37" stop-color="#0175ba" stop-opacity="0.75"/><stop offset="0.48" stop-color="#0478ad" stop-opacity="0.74"/><stop offset="0.57" stop-color="#087d97" stop-opacity="0.73"/><stop offset="0.66" stop-color="#0f8579" stop-opacity="0.72"/><stop offset="0.75" stop-color="#178e52" stop-opacity="0.71"/><stop offset="0.78" stop-color="#1b9241" stop-opacity="0.7"/></linearGradient><linearGradient id="linear-gradient-2" x1="396.5" y1="170.68" x2="396.5" gradientUnits="userSpaceOnUse"><stop offset="0" stop-color="#006e9c"/><stop offset="0.27" stop-color="#0c5d9b"/><stop offset="0.71" stop-color="#1b489a"/><stop offset="1" stop-color="#21409a"/></linearGradient><linearGradient id="linear-gradient-3" x1="657.82" y1="515.24" x2="631.66" y2="515.24" gradientUnits="userSpaceOnUse"><stop offset="0" stop-color="#399f49"/><stop offset="0.63" stop-color="#259543"/><stop offset="1" stop-color="#1b9241"/></linearGradient><linearGradient id="linear-gradient-4" x1="657.82" y1="503.74" x2="631.66" y2="503.74" xlink:href="#linear-gradient-3"/><linearGradient id="linear-gradient-5" x1="659.33" y1="492.26" x2="632.14" y2="492.26" xlink:href="#linear-gradient-3"/><linearGradient id="linear-gradient-6" x1="661.36" y1="479.39" x2="632.58" y2="479.39" xlink:href="#linear-gradient-3"/><linearGradient id="linear-gradient-7" x1="669.12" y1="428.88" x2="633.45" y2="428.88" xlink:href="#linear-gradient-3"/><linearGradient id="linear-gradient-8" x1="668.35" y1="440.93" x2="636.32" y2="440.93" xlink:href="#linear-gradient-3"/><linearGradient id="linear-gradient-9" x1="666.63" y1="455.04" x2="635.38" y2="455.04" xlink:href="#linear-gradient-3"/><linearGradient id="linear-gradient-10" x1="663.57" y1="466.72" x2="634.29" y2="466.72" xlink:href="#linear-gradient-3"/><linearGradient id="linear-gradient-11" x1="667.33" y1="415.53" x2="627.91" y2="415.53" xlink:href="#linear-gradient-3"/><linearGradient id="linear-gradient-12" x1="666.59" y1="402.35" x2="624.04" y2="402.35" xlink:href="#linear-gradient-3"/><linearGradient id="linear-gradient-13" x1="665.12" y1="390.73" x2="624.51" y2="390.73" xlink:href="#linear-gradient-3"/><linearGradient id="linear-gradient-14" x1="664.86" y1="378.83" x2="625.7" y2="378.83" xlink:href="#linear-gradient-3"/><linearGradient id="linear-gradient-15" x1="662.44" y1="366.39" x2="626.56" y2="366.39" xlink:href="#linear-gradient-3"/><linearGradient id="linear-gradient-16" x1="660.47" y1="355.59" x2="628.92" y2="355.59" xlink:href="#linear-gradient-3"/><linearGradient id="linear-gradient-17" x1="657.58" y1="344.52" x2="631.81" y2="344.52" xlink:href="#linear-gradient-3"/><linearGradient id="linear-gradient-18" x1="526.78" y1="322.2" x2="552.66" y2="322.2" gradientTransform="translate(-15.49 27.17) rotate(-2.86)" gradientUnits="userSpaceOnUse"><stop offset="0.35" stop-color="#ec1c24"/><stop offset="0.69" stop-color="#ffde17"/></linearGradient><linearGradient id="linear-gradient-19" x1="532.05" y1="330.84" x2="558.87" y2="330.84" xlink:href="#linear-gradient-18"/><linearGradient id="linear-gradient-20" x1="529.13" y1="337.5" x2="555.63" y2="337.5" xlink:href="#linear-gradient-18"/><linearGradient id="linear-gradient-21" x1="512.78" y1="330.12" x2="535.2" y2="330.12" gradientTransform="matrix(1, 0.01, -0.01, 1, 3.7, -5.45)" gradientUnits="userSpaceOnUse"><stop offset="0" stop-color="#ffde17"/><stop offset="0.08" stop-color="#fdc719"/><stop offset="0.32" stop-color="#f78b1d"/><stop offset="0.54" stop-color="#f25b20"/><stop offset="0.74" stop-color="#ef3922"/><stop offset="0.9" stop-color="#ed2423"/><stop offset="1" stop-color="#ec1c24"/></linearGradient></defs><rect class="cls-1" x="0.5" y="150.66" width="792" height="461.34"/><rect class="cls-2" x="0.5" width="792" height="170.68"/><circle class="cls-3" cx="369.45" cy="350.24" r="12.42"/><polygon class="cls-4" points="342.85 338.68 324.08 335.65 323.86 339.63 342.85 338.68"/><polygon class="cls-4" points="341.81 354.49 322.81 353.87 323.1 357.85 341.81 354.49"/><polygon class="cls-4" points="349.01 369.01 330.8 374.48 332.34 378.15 349.01 369.01"/><rect class="cls-5" x="631.66" y="509.54" width="26.16" height="11.4"/><polygon class="cls-6" points="657.82 509.31 631.66 509.31 631.66 498.17 657.82 499.69 657.82 509.31"/><polygon class="cls-7" points="658.2 499.53 632.14 497.3 633.28 484.98 659.33 487.22 658.2 499.53"/><polygon class="cls-8" points="660.23 486.73 632.59 484.36 633.72 472.05 661.36 474.42 660.23 486.73"/><polygon class="cls-9" points="669.12 433.44 634.67 436.62 633.45 424.32 667.9 421.14 669.12 433.44"/><polygon class="cls-10" points="668.35 446.6 636.32 447.61 636.5 436.52 667.93 434.24 668.35 446.6"/><polygon class="cls-11" points="666.28 462.57 635.38 457.99 637.62 447.59 666.63 447.5 666.28 462.57"/><polygon class="cls-12" points="661.77 474.72 634.29 470.96 636.09 458.72 663.57 462.48 661.77 474.72"/><polygon class="cls-13" points="667.33 419.92 629.13 423.44 627.91 411.13 666.11 407.61 667.33 419.92"/><polygon class="cls-14" points="666.59 406.59 625.26 410.4 624.04 398.1 665.37 394.29 666.59 406.59"/><polygon class="cls-15" points="665.12 393.98 625.7 397.61 624.51 386.29 664.05 383.86 665.12 393.98"/><polygon class="cls-16" points="664.86 383.26 626.36 385.17 625.7 372.82 663.3 372.5 664.86 383.26"/><rect class="cls-17" x="626.56" y="361.08" width="35.87" height="10.61"/><rect class="cls-18" x="628.92" y="350.28" width="31.55" height="10.61"/><rect class="cls-19" x="631.81" y="339.21" width="25.77" height="10.61"/><g id="Moon"><ellipse class="cls-20" cx="104.73" cy="42.14" rx="37.15" ry="38.33"/><ellipse class="cls-21" cx="92.07" cy="31.04" rx="4.58" ry="6.95"/><ellipse class="cls-21" cx="119.12" cy="27.16" rx="5.33" ry="3.88"/><ellipse class="cls-21" cx="100.27" cy="49.82" rx="5.44" ry="4.59" transform="translate(-11.19 50.99) rotate(-27.02)"/><ellipse class="cls-21" cx="122.66" cy="54.65" rx="7.32" ry="8.43" transform="translate(-10.94 61.69) rotate(-27.02)"/></g><polygon class="cls-22" points="552.19 314.16 526.69 322.4 531.41 329.75 552.19 314.16"/><polygon class="cls-23" points="559.12 328.38 532.18 326.85 533.14 335.29 559.12 328.38"/><polygon class="cls-24" points="556.56 342.15 532.27 332.15 529.88 339.29 556.56 342.15"/><ellipse class="cls-25" cx="523.81" cy="330.76" rx="11.21" ry="10.27" transform="translate(-18.85 32.84) rotate(-3.53)"/><rect class="cls-26" x="608.16" y="310.64" width="71.91" height="27.88"/><rect class="cls-27" x="621.45" y="315.74" width="13.33" height="6.91"/><rect class="cls-27" x="653.45" y="315.74" width="13.33" height="6.91"/><rect class="cls-28" x="635.38" y="328.09" width="17.47" height="6.02" rx="3.01"/><ellipse class="cls-29" cx="626.31" cy="318.99" rx="1.48" ry="1.26"/><ellipse class="cls-29" cx="659.56" cy="318.99" rx="1.48" ry="1.26"/><path class="cls-30" d="M54.71,671.29H45.48L30.57,645.37h-.21c.3,4.57.44,7.84.44,9.79v16.13H24.31V637h9.17l14.88,25.67h.16q-.35-6.69-.35-9.45V637h6.54Z" transform="translate(0.5)"/><path class="cls-30" d="M79.41,671.29,78,667.72h-.19a10.58,10.58,0,0,1-3.71,3.16,12.08,12.08,0,0,1-5,.88,8,8,0,0,1-5.94-2.16A8.26,8.26,0,0,1,61,663.46,6.9,6.9,0,0,1,64,657.31c1.94-1.32,4.88-2,8.8-2.19L77.3,655v-1.14c0-2.66-1.35-4-4.07-4a18.53,18.53,0,0,0-7.39,1.9l-2.36-4.83a21.27,21.27,0,0,1,10-2.37c3.51,0,6.21.77,8.08,2.3s2.82,3.86,2.82,7v17.46ZM77.3,659.15l-2.76.09a8.78,8.78,0,0,0-4.64,1.13,3.51,3.51,0,0,0-1.52,3.14q0,3,3.46,3a5.53,5.53,0,0,0,4-1.43,5,5,0,0,0,1.48-3.8Z" transform="translate(0.5)"/><path class="cls-30" d="M102.8,666.06a15.39,15.39,0,0,0,4.5-.82v5.32a16,16,0,0,1-6.56,1.2c-2.86,0-4.94-.73-6.24-2.17s-2-3.62-2-6.51V650.45H89.12v-3L93.05,645l2.07-5.53h4.57v5.57H107v5.37H99.69v12.63a2.78,2.78,0,0,0,.85,2.25A3.36,3.36,0,0,0,102.8,666.06Z" transform="translate(0.5)"/><path class="cls-30" d="M129.24,671.29l-1.38-3.57h-.19a10.58,10.58,0,0,1-3.71,3.16,12.14,12.14,0,0,1-5,.88A8,8,0,0,1,113,669.6a8.26,8.26,0,0,1-2.17-6.14,6.9,6.9,0,0,1,2.92-6.15q2.91-2,8.8-2.19l4.54-.15v-1.14q0-4-4.08-4a18.53,18.53,0,0,0-7.38,1.9l-2.37-4.83a21.31,21.31,0,0,1,10-2.37c3.51,0,6.21.77,8.08,2.3s2.81,3.86,2.81,7v17.46Zm-2.11-12.14-2.76.09a8.78,8.78,0,0,0-4.64,1.13,3.51,3.51,0,0,0-1.53,3.14q0,3,3.47,3a5.49,5.49,0,0,0,4-1.43,5,5,0,0,0,1.49-3.8Z" transform="translate(0.5)"/><path class="cls-30" d="M165.78,671.29h-7.15V656a7.26,7.26,0,0,0-1-4.25,3.65,3.65,0,0,0-3.21-1.42,4.83,4.83,0,0,0-4.33,2q-1.34,2-1.34,6.65v12.33h-7.15V645.08h5.46l1,3.36h.39a7.58,7.58,0,0,1,3.3-2.88,11.35,11.35,0,0,1,4.77-1c3,0,5.36.83,6.93,2.47s2.37,4,2.37,7.14Z" transform="translate(0.5)"/><path class="cls-30" d="M172.84,638.31c0-2.33,1.29-3.49,3.89-3.49s3.89,1.16,3.89,3.49a3.41,3.41,0,0,1-1,2.59,4.05,4.05,0,0,1-2.91.93C174.13,641.83,172.84,640.65,172.84,638.31Zm7.45,33h-7.15V645.08h7.15Z" transform="translate(0.5)"/><path class="cls-30" d="M199.65,671.76q-6.33,0-9.89-3.5t-3.56-9.89q0-6.58,3.29-10.18t9.1-3.6q5.57,0,8.65,3.17c2.06,2.11,3.1,5,3.1,8.74V660h-16.9a6.89,6.89,0,0,0,1.8,4.75,6.34,6.34,0,0,0,4.74,1.72,19.5,19.5,0,0,0,4.47-.5,21.73,21.73,0,0,0,4.41-1.57v5.53a16.86,16.86,0,0,1-4,1.4A25.51,25.51,0,0,1,199.65,671.76Zm-1-22.08a4.53,4.53,0,0,0-3.56,1.44,6.69,6.69,0,0,0-1.48,4.09h10a6,6,0,0,0-1.38-4.09A4.68,4.68,0,0,0,198.64,649.68Z" transform="translate(0.5)"/><path class="cls-30" d="M223.3,671.29h-7.15V634.82h7.15Z" transform="translate(0.5)"/><path class="cls-30" d="M251,671.29h-7.15V637h19.64v6H251v8.84H262.6v5.93H251Z" transform="translate(0.5)"/><path class="cls-30" d="M286.25,671.29l-1.38-3.57h-.19a10.51,10.51,0,0,1-3.72,3.16,12.08,12.08,0,0,1-5,.88A8.06,8.06,0,0,1,270,669.6a8.3,8.3,0,0,1-2.17-6.14,6.92,6.92,0,0,1,2.92-6.15q2.93-2,8.8-2.19l4.55-.15v-1.14q0-4-4.08-4a18.53,18.53,0,0,0-7.38,1.9l-2.37-4.83a21.29,21.29,0,0,1,10-2.37c3.52,0,6.21.77,8.09,2.3s2.81,3.86,2.81,7v17.46Zm-2.11-12.14-2.77.09a8.84,8.84,0,0,0-4.64,1.13,3.53,3.53,0,0,0-1.52,3.14q0,3,3.47,3a5.49,5.49,0,0,0,4-1.43,5,5,0,0,0,1.49-3.8Z" transform="translate(0.5)"/><path class="cls-30" d="M313.23,644.59a11.59,11.59,0,0,1,2.41.21l-.54,6.71a8,8,0,0,0-2.11-.24,7.58,7.58,0,0,0-5.33,1.76,6.36,6.36,0,0,0-1.91,4.92v13.34H298.6V645.08H304l1.05,4.41h.35a9.85,9.85,0,0,1,3.29-3.55A8.14,8.14,0,0,1,313.23,644.59Z" transform="translate(0.5)"/><path class="cls-30" d="M338.63,671.29H317.94v-4.22l12.14-16.53H318.66v-5.46h19.55v4.64L326.4,665.83h12.23Z" transform="translate(0.5)"/><path class="cls-30" d="M360.45,671.29l-1.38-3.57h-.19a10.58,10.58,0,0,1-3.71,3.16,12.14,12.14,0,0,1-5,.88,8,8,0,0,1-5.94-2.16,8.26,8.26,0,0,1-2.17-6.14,6.9,6.9,0,0,1,2.92-6.15q2.91-2,8.8-2.19l4.54-.15v-1.14q0-4-4.07-4a18.53,18.53,0,0,0-7.39,1.9l-2.36-4.83a21.24,21.24,0,0,1,10-2.37c3.51,0,6.21.77,8.08,2.3s2.81,3.86,2.81,7v17.46Zm-2.11-12.14-2.76.09a8.78,8.78,0,0,0-4.64,1.13,3.51,3.51,0,0,0-1.53,3.14q0,3,3.47,3a5.49,5.49,0,0,0,4-1.43,5,5,0,0,0,1.49-3.8Z" transform="translate(0.5)"/><path class="cls-30" d="M397,671.29h-7.15V656a7.35,7.35,0,0,0-1-4.25,3.68,3.68,0,0,0-3.22-1.42,4.83,4.83,0,0,0-4.33,2q-1.34,2-1.34,6.65v12.33H372.8V645.08h5.47l1,3.36h.39a7.58,7.58,0,0,1,3.3-2.88,11.35,11.35,0,0,1,4.77-1c3,0,5.36.83,6.93,2.47s2.37,4,2.37,7.14Z" transform="translate(0.5)"/><polygon class="cls-31" points="792.5 105.85 762.84 105.85 762.84 72.26 715.87 72.26 715.87 124.84 632.16 124.84 632.16 57.5 606.41 57.5 606.41 114.48 576.6 114.48 576.6 27.46 550.01 27.46 550.01 141.42 467.37 141.42 467.37 88.58 420.06 88.58 420.06 64.75 305.41 64.75 305.41 86.17 214.16 86.17 214.16 72.26 167.79 72.26 167.79 110.34 133.64 110.34 133.64 99.63 48.49 99.63 48.49 110.34 0.5 110.34 0.5 213.95 48.49 213.95 48.49 222.22 133.64 222.22 133.64 213.95 167.79 213.95 167.79 208.06 214.16 208.06 214.16 211.17 305.41 211.17 305.41 205.3 420.06 205.3 420.06 218.64 467.37 218.64 467.37 222.22 551.28 222.22 551.28 213.95 576.6 213.95 576.6 190.8 606.41 190.8 606.41 211.17 632.16 211.17 632.16 195.29 715.87 195.29 715.87 225.33 762.84 225.33 762.84 183.2 792.5 183.2 792.5 105.85"/><path class="cls-32" d="M792,586.44a50.5,50.5,0,0,0-20.35-12.79c-36.23-12.7-104.07,1.89-156.78-7.42-141.49-25-314.95-48.49-380.32-48.49C211,517.74,100,516,78.74,519.13,45.71,524,19.65,530.78,0,539.73V612H792Z" transform="translate(0.5)"/><g id="Robot_Man" data-name="Robot Man"><circle class="cls-33" cx="151.52" cy="498.66" r="17.96"/><circle class="cls-33" cx="205.75" cy="499.66" r="17.96"/><polygon class="cls-34" points="285.98 369.27 230.26 413.57 230.26 468.47 305.98 389.27 285.98 369.27"/><rect class="cls-35" x="125.66" y="390.57" width="108.09" height="108.09"/><polygon class="cls-35" points="215.57 370.85 107.48 370.85 125.09 389.5 233.18 389.5 215.57 370.85"/><polygon class="cls-35" points="107.05 372.27 124.66 390.57 124.66 498.66 107.05 480.36 107.05 372.27"/><polygon class="cls-34" points="64.26 365.61 119.98 409.91 119.98 464.81 44.26 385.61 64.26 365.61"/><rect class="cls-35" x="160.14" y="342.15" width="20.37" height="40.06"/><polygon class="cls-35" points="153.64 336.49 159.57 341.99 159.57 382.04 153.64 376.55 153.64 336.49"/><g id="Head"><rect class="cls-35" x="121.16" y="292.64" width="99.97" height="49.51"/><polygon class="cls-35" points="111.55 283.62 121.41 292.64 121.41 342.15 111.16 332.78 111.55 283.62"/><polygon class="cls-35" points="112.02 283.27 211.99 283.27 221.38 292.64 121.41 292.64 112.02 283.27"/><rect class="cls-36" x="185.57" y="303.34" width="17.17" height="12.09"/><rect class="cls-36" x="145.57" y="303.34" width="17.17" height="12.09"/><rect class="cls-36" x="162.9" y="324.96" width="22.5" height="10.53"/></g></g><circle class="cls-37" cx="157.09" cy="309.04" r="1.77"/><circle class="cls-37" cx="196.87" cy="309.04" r="1.77"/><path class="cls-3" d="M640.72,533l2.67-2.41-27.51,3.49,8.74,13.52,1.22-1.1A16.76,16.76,0,0,1,640.72,533Z" transform="translate(0.5)"/><circle class="cls-3" cx="644.69" cy="552.33" r="16.77"/><path class="cls-3" d="M647.86,533l-2.67-2.41,27.51,3.49L664,547.63l-1.22-1.1A16.76,16.76,0,0,0,647.86,533Z" transform="translate(0.5)"/><rect class="cls-3" x="634.33" y="521.17" width="20.72" height="11.76"/></svg>