<svg id="Logo" xmlns="http://www.w3.org/2000/svg" viewBox="0 0 1100 1100"><defs><style>.cls-1{fill:#414042;}.cls-2{fill:#b0b0b1;}.cls-3{fill:#bcbec0;}.cls-4{fill:#231f20;}.cls-5{fill:#fff;}.cls-6{fill:#878989;}.cls-7,.cls-8{fill:none;stroke-linecap:round;stroke-linejoin:round;stroke-width:100px;}.cls-7{stroke:#bcbec0;}.cls-8{stroke:#231f20;}</style></defs><circle class="cls-1" cx="550" cy="550" r="550"/><path class="cls-2" d="M881.91,671.36h136.22v349q-.25,49.71-25,87.37T925,1166.41q-43.38,21-99.8,21-49,0-89.49-17a141.1,141.1,0,0,1-64.63-53.7Q647,1080,647.25,1021.36H785.46q.74,19.14,6.58,32.32t16.41,19.76Q819,1080,834.18,1080q15.41,0,26-6.71t16-20q5.46-13.29,5.72-32.93Z" transform="translate(-410 -410)"/><path class="cls-3" d="M879.91,1180.47V671.38h138.21v397.73H1224v111.36Z" transform="translate(-410 -410)"/><path class="cls-4" d="M868.19,1191.89V682.8H1006.4v397.73h205.83v111.36Z" transform="translate(-410 -410)"/><polygon class="cls-2" points="802.23 781.89 813.94 770.45 813.94 659.39 802.23 670.53 802.23 781.89"/><path class="cls-5" d="M861.68,691.25H997.9v349q-.25,49.73-25,87.38t-68.11,58.66q-43.38,21-99.81,21-49,0-89.49-17a141.15,141.15,0,0,1-64.63-53.7q-24.11-36.66-23.86-95.33H765.23q.75,19.15,6.59,32.32t16.4,19.76q10.57,6.59,25.73,6.59,15.4,0,26-6.71t16-20q5.46-13.31,5.72-32.94Z" transform="translate(-410 -410)"/><polygon class="cls-6" points="355.23 631.25 375.46 611.34 237.24 611.46 217.02 631.25 355.23 631.25"/><polygon class="cls-6" points="471.91 261.35 608.27 261.35 588.28 281.35 451.68 281.25 471.91 261.35"/><polyline class="cls-7" points="771.36 610.58 882.98 722.21 769.54 835.65"/><polyline class="cls-8" points="761.36 613.58 872.98 725.21 759.54 838.65"/><polygon class="cls-1" points="471.9 261.36 451.68 281.25 459.81 255.53 471.9 261.36"/></svg>